<svg xmlns="http://www.w3.org/2000/svg" width="319.726" height="33.557" viewBox="0 0 319.726 33.557" style="background:#000;">
  <g id="Platform" style="isolation: isolate">
    <path id="Path_58" data-name="Path 58" d="M34.989,36.693H47.132c7.323,0,12.143,3.894,12.143,10.291v.091c0,7-5.838,10.616-12.745,10.616H38.65V69.137H34.989ZM46.667,54.355c5.378,0,8.9-2.875,8.9-7.14v-.09c0-4.634-3.476-7.046-8.712-7.046h-8.2V54.355Z" transform="translate(-34.989 -36.138)" fill="#fbfbfb"/>
    <path id="Path_59" data-name="Path 59" d="M86.287,36.693h3.661V65.756H108.21v3.381H86.287Z" transform="translate(-51.135 -36.138)" fill="#fbfbfb"/>
    <path id="Path_60" data-name="Path 60" d="M144.992,36.357h3.43l14.784,32.674h-3.938l-3.8-8.574h-17.66l-3.847,8.574h-3.753Zm9.038,20.764-7.369-16.5-7.416,16.5Z" transform="translate(-64.959 -36.032)" fill="#fbfbfb"/>
    <path id="Path_61" data-name="Path 61" d="M195.238,40.078H184.347V36.693h25.491v3.385H198.946V69.137h-3.708Z" transform="translate(-81.999 -36.138)" fill="#fbfbfb"/>
    <path id="Path_62" data-name="Path 62" d="M237.669,36.693h23.314v3.385H241.33V51.664H258.9V55H241.33V69.137h-3.661Z" transform="translate(-98.782 -36.138)" fill="#fbfbfb"/>
    <path id="Path_63" data-name="Path 63" d="M288.155,36.693h23.313v3.385H291.816V51.664h17.566V55H291.816V69.137h-3.661Z" transform="translate(-114.673 -36.138)" fill="#fbfbfb"/>
    <path id="Path_64" data-name="Path 64" d="M335.529,52.753v-.09c0-8.944,6.721-16.779,16.592-16.779s16.5,7.741,16.5,16.685v.095c0,8.944-6.722,16.778-16.594,16.778S335.529,61.7,335.529,52.753Zm29.291,0v-.09c0-7.371-5.378-13.394-12.794-13.394s-12.7,5.933-12.7,13.3v.095c0,7.371,5.376,13.393,12.792,13.393S364.82,60.123,364.82,52.753Z" transform="translate(-129.583 -35.883)" fill="#fbfbfb"/>
    <path id="Path_65" data-name="Path 65" d="M401.239,36.693h13.948c3.985,0,7.186,1.207,9.223,3.245a8.954,8.954,0,0,1,2.5,6.4v.09c0,5.378-3.706,8.529-8.8,9.458l9.963,13.253h-4.495l-9.409-12.6H404.9v12.6h-3.661Zm13.624,16.549c4.868,0,8.344-2.5,8.344-6.676v-.09c0-3.985-3.06-6.4-8.295-6.4H404.9V53.242Z" transform="translate(-150.265 -36.138)" fill="#fbfbfb"/>
    <path id="Path_66" data-name="Path 66" d="M456.257,36.693h3.706L471.783,54.4,483.6,36.693h3.706V69.137h-3.661V42.86l-11.82,17.379h-.184L459.824,42.9V69.137h-3.567Z" transform="translate(-167.582 -36.138)" fill="#fbfbfb"/>
  </g>
</svg>
