<svg xmlns="http://www.w3.org/2000/svg" preserveAspectRatio="true" viewBox="0 0 262.642 90.478"><g fill="#fff"><g data-name="Group 1"><path data-name="Path 1" d="M152.966 14.217l-1.586.2-3.9 16.713h-3.58l-3.528-12.7h-.079l-3.528 12.7h-3.578l-3.924-16.713-1.573-.2v-2.323h7.082v2.325l-1.757.3 2.207 10.543.079.012 3.607-13.18h2.84l3.633 13.185.079-.012 2.193-10.543-1.757-.3v-2.33h7.068z"/><path data-name="Path 2" d="M153.784 23.85a7.65 7.65 0 011.791-5.239 7.042 7.042 0 019.909-.007 7.65 7.65 0 011.79 5.246v.278a7.643 7.643 0 01-1.79 5.252 7.066 7.066 0 01-9.909 0 7.638 7.638 0 01-1.791-5.252zm3.858.278a6.217 6.217 0 00.688 3.138 2.639 2.639 0 004.406-.007 6.175 6.175 0 00.694-3.131v-.278a6.114 6.114 0 00-.7-3.1 2.369 2.369 0 00-2.206-1.2 2.339 2.339 0 00-2.193 1.2 6.2 6.2 0 00-.688 3.1z"/><path data-name="Path 3" d="M169.243 28.818l1.85-.4v-8.862l-2.047-.4v-2.322h5.641l.172 2.087a4.5 4.5 0 011.3-1.73 2.887 2.887 0 011.834-.62 4.783 4.783 0 01.641.046 4.077 4.077 0 01.561.113l-.41 3.514-1.585-.04a2.7 2.7 0 00-1.4.33 2.131 2.131 0 00-.846.938v6.95l1.85.4v2.312h-7.561z"/><path data-name="Path 4" d="M179.272 12.844v-2.325h5.906v11.943h.859l2.22-3.131-1.257-.172v-2.325h7.029v2.325l-1.691.383-2.578 3.541 3.607 5.431 1.466.3v2.312h-6.606v-2.308l.793-.132-2.194-3.541h-1.651v3.277l1.665.4v2.312h-7.373v-2.316l1.863-.4V13.24z"/><path data-name="Path 5" d="M195.892 19.159v-2.325h5.6l.186 1.664a4.587 4.587 0 011.519-1.426 4.109 4.109 0 012.061-.5 4.76 4.76 0 014.123 2.074 9.267 9.267 0 011.466 5.457v.278a8.219 8.219 0 01-1.466 5.1 4.853 4.853 0 01-4.1 1.929 4.593 4.593 0 01-2-.416 4.083 4.083 0 01-1.492-1.223v4.137l1.862.4v2.326h-7.571v-2.333l1.863-.4V19.556zm11.1 4.942a6.912 6.912 0 00-.674-3.277 2.2 2.2 0 00-2.061-1.256 2.909 2.909 0 00-1.486.357 2.534 2.534 0 00-.971 1.018v6.262a2.356 2.356 0 00.971.925 3.264 3.264 0 001.512.317 2.219 2.219 0 002.056-1.1 5.788 5.788 0 00.654-2.973z"/><path data-name="Path 6" d="M211.893 12.844v-2.325h5.919v17.9l1.863.4v2.312h-7.582v-2.313l1.863-.4V13.24z"/><path data-name="Path 7" d="M230.033 31.13a7.057 7.057 0 01-.278-.733 5.879 5.879 0 01-.185-.76 5.3 5.3 0 01-1.67 1.282 5.011 5.011 0 01-2.253.489 4.717 4.717 0 01-3.337-1.143 4.028 4.028 0 01-1.235-3.112 3.537 3.537 0 011.611-3.1 8.42 8.42 0 014.73-1.1h1.969v-1.4a2.111 2.111 0 00-.595-1.6 2.45 2.45 0 00-1.758-.568 4.151 4.151 0 00-1.176.152 3.07 3.07 0 00-.832.363l-.251 1.533h-2.908l.014-3.172a10.831 10.831 0 012.425-1.2 8.773 8.773 0 012.979-.489 6.785 6.785 0 014.313 1.3 4.438 4.438 0 011.658 3.707v5.905q0 .331.007.621a4.561 4.561 0 00.046.555l1.176.159v2.312zm-3.343-2.576a3.345 3.345 0 001.586-.377 3.058 3.058 0 001.11-.944v-2.18h-1.969a2.689 2.689 0 00-1.863.574 1.8 1.8 0 00-.633 1.381 1.427 1.427 0 00.469 1.137 1.911 1.911 0 001.301.409z"/><path data-name="Path 8" d="M242.506 28.448a2.275 2.275 0 001.652-.6 2.134 2.134 0 00.62-1.605h3.489l.039.078a4.46 4.46 0 01-1.625 3.627 6.873 6.873 0 01-9.1-.561 7.7 7.7 0 01-1.73-5.193v-.4a7.605 7.605 0 011.777-5.193 6.366 6.366 0 015.067-2.034 8.791 8.791 0 013.1.515 6.121 6.121 0 012.285 1.453l.053 3.818h-3.131l-.633-2.232a2.43 2.43 0 00-.714-.416 2.626 2.626 0 00-.965-.166 2.437 2.437 0 00-2.313 1.189 6.183 6.183 0 00-.673 3.065v.4a6.59 6.59 0 00.62 3.085 2.256 2.256 0 002.182 1.17z"/><path data-name="Path 9" d="M256.894 31.407a6.435 6.435 0 01-4.941-1.982 7.084 7.084 0 01-1.849-5.033v-.529a7.822 7.822 0 011.75-5.246 6.527 6.527 0 019.189-.3 6.711 6.711 0 011.6 4.716v2.1h-8.535l-.026.079a3.735 3.735 0 00.944 2.325 2.946 2.946 0 002.28.912 7.408 7.408 0 002.126-.258 9.746 9.746 0 001.851-.812l1.043 2.379a7.605 7.605 0 01-2.292 1.175 9.759 9.759 0 01-3.14.474zm-.344-11.865a2.009 2.009 0 00-1.691.819 4.263 4.263 0 00-.767 2.153l.04.066h4.73v-.343a3.1 3.1 0 00-.574-1.966 2.07 2.07 0 00-1.738-.728z"/><path data-name="Path 10" d="M128.047 53.34l2.048-.4V39.136l-2.048-.4v-2.321h15.314v5.271h-2.96l-.172-2.3h-6.276v5.3h6.738v2.973h-6.738v5.285l2.061.4v2.313h-7.967z"/><path data-name="Path 11" d="M154.564 53.842a4.642 4.642 0 01-4 2.088 4.484 4.484 0 01-3.541-1.448 6.647 6.647 0 01-1.282-4.5v-5.906l-1.572-.4v-2.319h5.43v8.653a3.726 3.726 0 00.523 2.24 1.834 1.834 0 001.551.68 3.853 3.853 0 001.58-.3 2.745 2.745 0 001.09-.852v-7.702l-1.692-.4v-2.319h5.55v11.587l1.73.4v2.313h-5.113z"/><path data-name="Path 12" d="M167.141 37.855v3.5h2.511v2.708h-2.511v7.28a1.682 1.682 0 00.344 1.188 1.221 1.221 0 00.925.357 6.32 6.32 0 00.694-.033 6.682 6.682 0 00.667-.113l.329 2.788a9.089 9.089 0 01-1.281.3 8.92 8.92 0 01-1.374.1 4.115 4.115 0 01-3.072-1.1 4.808 4.808 0 01-1.076-3.475v-7.29h-2.1v-2.708h2.1v-3.5z"/><path data-name="Path 13" d="M181.544 53.842a4.642 4.642 0 01-4 2.088 4.484 4.484 0 01-3.541-1.448 6.647 6.647 0 01-1.282-4.5v-5.906l-1.572-.4v-2.319h5.43v8.653a3.725 3.725 0 00.523 2.24 1.834 1.834 0 001.551.68 3.853 3.853 0 001.58-.3 2.745 2.745 0 001.09-.852v-7.702l-1.692-.4v-2.319h5.55v11.587l1.73.4v2.313h-5.113z"/><path data-name="Path 14" d="M188.718 53.34l1.849-.4v-8.861l-2.047-.4v-2.322h5.641l.172 2.087a4.494 4.494 0 011.3-1.731 2.89 2.89 0 011.835-.621 4.79 4.79 0 01.641.047 3.929 3.929 0 01.561.113l-.409 3.514-1.586-.04a2.708 2.708 0 00-1.4.329 2.143 2.143 0 00-.846.938v6.951l1.85.4v2.313h-7.557z"/><path data-name="Path 15" d="M206.409 55.93a6.435 6.435 0 01-4.941-1.982 7.086 7.086 0 01-1.85-5.034v-.528a7.822 7.822 0 011.751-5.246 6.526 6.526 0 019.189-.3 6.713 6.713 0 011.6 4.717v2.1h-8.534l-.026.079a3.73 3.73 0 00.944 2.326 2.945 2.945 0 002.279.911 7.419 7.419 0 002.127-.257 9.809 9.809 0 001.851-.812l1.043 2.378a7.582 7.582 0 01-2.292 1.176 9.759 9.759 0 01-3.141.472zm-.344-11.865a2.008 2.008 0 00-1.691.818 4.27 4.27 0 00-.767 2.154l.04.066h4.73v-.344a3.094 3.094 0 00-.575-1.962 2.07 2.07 0 00-1.737-.731z"/><path data-name="Path 16" d="M225.647 46.272h-2.59l-.409-1.783a3.359 3.359 0 00-1-.529 3.971 3.971 0 00-1.328-.211 2.582 2.582 0 00-1.611.455 1.387 1.387 0 00-.595 1.143 1.3 1.3 0 00.567 1.078 6.106 6.106 0 002.273.759 9.263 9.263 0 013.937 1.552 3.411 3.411 0 011.281 2.821 3.753 3.753 0 01-1.657 3.15 7.187 7.187 0 01-4.367 1.223 9.152 9.152 0 01-3.033-.483 7.752 7.752 0 01-2.451-1.381l-.039-3.21h2.694l.53 1.862a2.2 2.2 0 00.938.43 5.439 5.439 0 001.241.139 3.147 3.147 0 001.79-.424 1.323 1.323 0 00.615-1.149 1.344 1.344 0 00-.622-1.1 6.338 6.338 0 00-2.285-.819 9.171 9.171 0 01-3.812-1.526 3.315 3.315 0 01-1.287-2.755 4 4 0 011.479-3.1 6.185 6.185 0 014.215-1.3 10.858 10.858 0 013.152.449 6.672 6.672 0 012.332 1.15z"/><path data-name="Path 17" d="M143.996 78.034a8.581 8.581 0 01-2.736 1.671 11.942 11.942 0 01-4.545.746 8.29 8.29 0 01-6.342-2.61 9.523 9.523 0 01-2.445-6.785v-.66a10.176 10.176 0 012.411-7.029 8.031 8.031 0 016.3-2.709 11.41 11.41 0 014.129.721 8.9 8.9 0 013.111 1.949v3.871h-2.858l-.542-2.577a3.963 3.963 0 00-1.395-.72 6.67 6.67 0 00-1.987-.27 4.627 4.627 0 00-3.924 1.862 7.9 7.9 0 00-1.4 4.876v.686a7.376 7.376 0 001.374 4.685 4.74 4.74 0 003.964 1.751 7.3 7.3 0 001.883-.2 4.127 4.127 0 001.129-.463v-3.261l-2.748-.211v-2.709h6.62z"/><path data-name="Path 18" d="M146.306 77.862l1.849-.4V68.6l-2.046-.4v-2.322h5.64l.172 2.087a4.508 4.508 0 011.3-1.73 2.891 2.891 0 011.836-.621 4.756 4.756 0 01.64.046 4.045 4.045 0 01.561.113l-.409 3.514-1.586-.04a2.714 2.714 0 00-1.4.33 2.144 2.144 0 00-.846.938v6.95l1.851.4v2.307h-7.559z"/><path data-name="Path 19" d="M157.14 72.894a7.65 7.65 0 011.791-5.239 7.042 7.042 0 019.909-.007 7.651 7.651 0 011.79 5.246v.278a7.641 7.641 0 01-1.79 5.252 7.066 7.066 0 01-9.909 0 7.636 7.636 0 01-1.791-5.252zm3.858.278a6.215 6.215 0 00.688 3.138 2.639 2.639 0 004.406-.007 6.176 6.176 0 00.693-3.131v-.278a6.119 6.119 0 00-.7-3.1 2.37 2.37 0 00-2.206-1.2 2.339 2.339 0 00-2.193 1.2 6.208 6.208 0 00-.688 3.1z"/><path data-name="Path 20" d="M182.311 78.364a4.642 4.642 0 01-4 2.088 4.483 4.483 0 01-3.541-1.447 6.649 6.649 0 01-1.282-4.5V68.6l-1.573-.4v-2.323h5.425v8.654a3.73 3.73 0 00.523 2.24 1.834 1.834 0 001.551.68 3.87 3.87 0 001.58-.3 2.747 2.747 0 001.09-.853v-7.7l-1.692-.4v-2.321h5.55v11.587l1.73.4v2.313h-5.113z"/><path data-name="Path 21" d="M188.903 68.203v-2.325h5.6l.186 1.664a4.587 4.587 0 011.519-1.426 4.109 4.109 0 012.061-.5 4.758 4.758 0 014.123 2.075 9.261 9.261 0 011.466 5.456v.278a8.217 8.217 0 01-1.466 5.1 4.853 4.853 0 01-4.1 1.929 4.593 4.593 0 01-2-.416 4.083 4.083 0 01-1.492-1.223v4.137l1.862.4v2.32h-7.571v-2.326l1.863-.4V68.6zm11.1 4.942a6.916 6.916 0 00-.674-3.277 2.2 2.2 0 00-2.061-1.256 2.909 2.909 0 00-1.486.357 2.54 2.54 0 00-.971 1.018v6.262a2.356 2.356 0 00.971.925 3.264 3.264 0 001.512.317 2.219 2.219 0 002.056-1.1 5.785 5.785 0 00.654-2.973z"/></g><g data-name="Group 2"><path data-name="Path 22" d="M28.468 17.104L0 45.572V74.04l28.468-28.468z"/><path data-name="Path 23" d="M56.197 17.104L27.729 45.572V74.04l28.468-28.468z"/><path data-name="Path 24" d="M83.926 17.104L55.458 45.572V74.04l28.468-28.468z"/></g><path data-name="Rectangle 2" d="M105.623 0h1.691v90.478h-1.691z"/></g></svg>