<?xml version="1.0" encoding="UTF-8"?><svg id="Layer_1" xmlns="http://www.w3.org/2000/svg" viewBox="0 0 107 27"><defs><style>.cls-1{fill:#e95324;}</style></defs><path class="cls-1" d="M53.51,6.42c-2.52,0-4.51,1.19-5.83,3.28-1.16-2.09-2.92-3.28-5.3-3.28s-4.11,.86-5.07,2.59h-.07v-1.96h-5.14V25.45h5.5V15.54c0-2.55,.96-3.94,3.12-3.94,1.89,0,2.75,1.33,2.75,3.71v10.14h5.5V15.27c0-2.42,.96-3.68,3.05-3.68,1.89,0,2.82,1.06,2.82,3.94v9.91h5.5V14.08c0-5.14-2.72-7.66-6.83-7.66Z"/><path class="cls-1" d="M74.95,6.42c-1.92,0-3.78,.53-5.24,2.09V.92h-5.5V25.45h5.27v-1.96h.07c.83,1.56,3.05,2.59,5.27,2.59,5.67,0,9.28-4.28,9.28-9.94,0-6.13-4.37-9.71-9.15-9.71Zm3.2,13.58c-.93,.99-2.08,1.49-3.44,1.49s-2.57-.49-3.49-1.46c-.92-.97-1.39-2.25-1.39-3.83s.46-2.8,1.39-3.75c.92-.96,2.09-1.44,3.49-1.44s2.55,.49,3.46,1.46c.91,.97,1.37,2.22,1.37,3.75s-.47,2.8-1.4,3.79Z"/><rect class="cls-1" x="87.19" y=".92" width="5.5" height="4.18"/><rect class="cls-1" x="87.19" y="7.05" width="5.5" height="18.4"/><polygon class="cls-1" points="103.43 7.05 103.43 .92 97.93 .92 97.93 7.05 95.21 7.05 95.21 11.23 97.93 11.23 97.93 25.45 103.43 25.45 103.43 11.23 106.08 11.23 106.08 7.05 103.43 7.05"/><path class="cls-1" d="M23.84,2.52L.92,25.45H7.65l3.97-3.97h12.41v3.97h4.93V.92h-2.24c-1.49,0-2.87,1.6-2.87,1.6Zm.19,6.63v7.88h-8l7.96-7.95,.04-.04v.11Z"/></svg>