<svg id="Modus" xmlns="http://www.w3.org/2000/svg" width="181.592" height="36.657" viewBox="0 0 181.592 36.657">
  <g id="Group_25" data-name="Group 25" transform="translate(0 0)">
    <path id="Path_51" data-name="Path 51" d="M52.774,2A18.02,18.02,0,0,1,71.1,20.33a18.019,18.019,0,0,1-18.33,18.327A17.975,17.975,0,0,1,34.5,20.33,17.977,17.977,0,0,1,52.774,2Zm0,31.168c7.2,0,12.537-5.238,12.537-12.839,0-7.706-5.338-12.84-12.537-12.84-7.249,0-12.539,5.134-12.539,12.84C40.235,27.93,45.525,33.168,52.774,33.168Z" transform="translate(2.47 -2)" fill="#232929"/>
    <g id="Group_24" data-name="Group 24" transform="translate(0 0.705)">
      <g id="Group_23" data-name="Group 23">
        <path id="Path_52" data-name="Path 52" d="M33.431,2.658V37.9h-5.49V24.461c0-6.4.3-12.437.253-12.437h-.049c-.051,0-2.217,3.725-3.123,5.334L18.175,29.193H15.256L8.409,17.358c-.907-1.61-3.023-5.334-3.073-5.334h-.05c-.049,0,.2,6.042.2,12.437V37.9H0V2.658H5.236l8,13.492c2.922,4.837,3.424,6.045,3.475,6.045h.053c.048,0,.552-1.208,3.421-6.045L28.195,2.658Z" transform="translate(0 -2.658)" fill="#232929"/>
        <path id="Path_53" data-name="Path 53" d="M84.742,2.658H71.954V37.9H85c9.918,0,18.023-7,18.023-17.472C103.019,9.859,94.812,2.658,84.742,2.658ZM85,32.67H77.544V7.895h7.2A12.1,12.1,0,0,1,97.227,20.432C97.227,28.085,91.541,32.67,85,32.67Z" transform="translate(5.151 -2.658)" fill="#232929"/>
      </g>
      <path id="Path_54" data-name="Path 54" d="M133.9,2.658V22.949c0,10.173-5.589,15.661-14.85,15.661s-14.805-5.489-14.805-15.661V2.658h5.588V22.9c0,7.1,3.124,10.526,9.217,10.526,6.138,0,9.311-3.427,9.311-10.526V2.658Z" transform="translate(7.463 -2.658)" fill="#232929"/>
    </g>
    <path id="Path_55" data-name="Path 55" d="M155.585,12.977a7.711,7.711,0,0,0-7.908-6.143c-3.926,0-6.592,1.914-6.592,4.732,0,3.374,4.431,4.482,8.962,5.893,5.036,1.608,11.331,4.077,11.331,10.673,0,6.094-5.287,10.525-13.143,10.525-7.5,0-12.438-4.332-13.947-10.474l5.337-1.46c.655,3.673,3.726,6.946,8.811,6.946,4.482,0,7.1-2.316,7.1-5.334,0-4.383-5.436-5.286-10.42-6.95-4.131-1.408-9.717-3.374-9.717-9.514C135.4,6.382,140.679,2,147.93,2c6.544,0,11.684,3.878,12.989,9.515Z" transform="translate(9.614 -2)" fill="#232929"/>
  </g>
  <g id="Group_26" data-name="Group 26" transform="translate(175.229 9.137)">
    <path id="Path_56" data-name="Path 56" d="M169.885,27.564a3.182,3.182,0,1,1-3.182-3.182A3.179,3.179,0,0,1,169.885,27.564Z" transform="translate(-163.522 -9.535)" fill="#232929"/>
    <path id="Path_57" data-name="Path 57" d="M169.885,13.707a3.182,3.182,0,1,1-3.182-3.18A3.18,3.18,0,0,1,169.885,13.707Z" transform="translate(-163.522 -10.527)" fill="#232929"/>
  </g>
</svg>
